<svg id="Layer_1" data-name="Layer 1" xmlns="http://www.w3.org/2000/svg" viewBox="0 0 283.46 62.36"><defs><style>.cls-1{fill:#4285f4;}.cls-2{fill:#f2f2f2;}.cls-3{fill:#34a853;}.cls-4{fill:#fbbc05;}.cls-5{fill:#ea4335;}.cls-6{fill:#fff;}</style></defs><rect class="cls-1" x="0.7" y="1.2" width="282.07" height="59.97"/><rect class="cls-2" x="0.7" y="1.2" width="59.97" height="59.97"/><path class="cls-1" d="M47.84,31.58a20.94,20.94,0,0,0-.28-3.32H31.06v6.59h9.45A8.15,8.15,0,0,1,37,40.07v4.39h5.64A17.15,17.15,0,0,0,47.84,31.58Z"/><path class="cls-3" d="M31.06,48.7a16.7,16.7,0,0,0,11.58-4.24L37,40.07a10.56,10.56,0,0,1-15.77-5.54H15.42V39A17.49,17.49,0,0,0,31.06,48.7Z"/><path class="cls-4" d="M21.23,34.53a10.11,10.11,0,0,1-.56-3.35,10.54,10.54,0,0,1,.56-3.34V23.32H15.42a17.29,17.29,0,0,0,0,15.72Z"/><path class="cls-5" d="M31.06,20.59a9.48,9.48,0,0,1,6.71,2.63l5-5a16.76,16.76,0,0,0-11.71-4.57,17.49,17.49,0,0,0-15.64,9.66l5.81,4.52A10.48,10.48,0,0,1,31.06,20.59Z"/><path class="cls-6" d="M87.4,24.09h-5c-.79,0-1.18.23-1.18.68s.37.74,1.1.93l4.31,1a5.39,5.39,0,0,1,1.43.56,4.4,4.4,0,0,1,1.11.94,4.67,4.67,0,0,1,.69,1.27,5,5,0,0,1,.28,1.58,4.81,4.81,0,0,1-.47,2.09,5.28,5.28,0,0,1-1.24,1.69,6.35,6.35,0,0,1-4,1.49H81A6.58,6.58,0,0,1,78.76,36a1.21,1.21,0,0,1-.82-1.26,1,1,0,0,1,.64-.89A3.59,3.59,0,0,1,80,33.64h.81c.37,0,.65,0,.81,0h2.62a3.63,3.63,0,0,0,1.42-.27,2.45,2.45,0,0,0,1-.83,2.19,2.19,0,0,0,.39-1.32,1.73,1.73,0,0,0-.58-1.45,3.78,3.78,0,0,0-1.63-.72l-3.51-.84A4.7,4.7,0,0,1,79,27.08a2.74,2.74,0,0,1-.8-2,4,4,0,0,1,.29-1.4,3.35,3.35,0,0,1,.78-1.15,3.7,3.7,0,0,1,1.22-.73,4.42,4.42,0,0,1,1.57-.27h5.1a2.1,2.1,0,0,1,1.09.27,1,1,0,0,1,.5.85,1.47,1.47,0,0,1-.43,1.07A1.26,1.26,0,0,1,87.4,24.09Z"/><path class="cls-6" d="M92.52,22.87v-.39a1.06,1.06,0,0,1,.43-.89,1.61,1.61,0,0,1,1-.33,1.73,1.73,0,0,1,.91.37,1.11,1.11,0,0,1,.37.88v.36a1.29,1.29,0,0,1-1.32,1.48,1.36,1.36,0,0,1-1-.41A1.47,1.47,0,0,1,92.52,22.87Zm0,11.91v-7.6A1.49,1.49,0,0,1,93,26.11a1.4,1.4,0,0,1,1-.43,1.36,1.36,0,0,1,.93.43,1.62,1.62,0,0,1,.35,1.09v7.58a1.63,1.63,0,0,1-.35,1.12,1.38,1.38,0,0,1-2,0A1.63,1.63,0,0,1,92.52,34.78Z"/><path class="cls-6" d="M107.12,34.58l.58.43a2.25,2.25,0,0,1,.6.68,2.46,2.46,0,0,1,.29,1.12,3.15,3.15,0,0,1-.58,1.9,4.57,4.57,0,0,1-1.57,1.34,8,8,0,0,1-2.15.8,10.59,10.59,0,0,1-2.27.25,10.07,10.07,0,0,1-1.59-.14c-.57-.08-1.1-.17-1.59-.29a4.72,4.72,0,0,1-1-.33l-.63-.26a.88.88,0,0,1-.42-.41,1,1,0,0,1-.18-.56,1,1,0,0,1,.06-.37.91.91,0,0,1,1-.72,2,2,0,0,1,.58.1l.76.19c.72.19,1.28.32,1.67.39a9.35,9.35,0,0,0,1.37.09,10.51,10.51,0,0,0,1.28-.11,5.93,5.93,0,0,0,1.14-.29,2.31,2.31,0,0,0,.86-.55,1.15,1.15,0,0,0,.37-.79.59.59,0,0,0-.33-.6,2.29,2.29,0,0,0-1-.16l-.55,0-.52,0h-1.92A4.58,4.58,0,0,1,99.48,36a4.21,4.21,0,0,1-1.45-1,4.57,4.57,0,0,1-.92-1.53,5.39,5.39,0,0,1-.32-1.84,6.26,6.26,0,0,1,.6-2.64,5.2,5.2,0,0,1,1.49-1.84,7,7,0,0,1,2.23-1,11,11,0,0,1,2.87-.35h2.44a2.89,2.89,0,0,1,1.11.18.7.7,0,0,1,.4.72,1,1,0,0,1-.17.66.93.93,0,0,1-.43.27.62.62,0,0,0-.31.17l-.11.2a1,1,0,0,0-.1.17.35.35,0,0,0-.06.19v5.49A1.13,1.13,0,0,0,107.12,34.58Zm-5-.6h2V27.76l-.77.08a5.19,5.19,0,0,0-1.67.39,3.26,3.26,0,0,0-1.2.79,3.39,3.39,0,0,0-.74,1.1,5.34,5.34,0,0,0-.29,1.4,2.18,2.18,0,0,0,.78,1.82A2.73,2.73,0,0,0,102.08,34Z"/><path class="cls-6" d="M115.51,25.47a4,4,0,0,1,1.61.31,3.49,3.49,0,0,1,1.22.84,3.55,3.55,0,0,1,.76,1.22,4.28,4.28,0,0,1,.25,1.49v5.58a1.49,1.49,0,0,1-.17.68,1.39,1.39,0,0,1-.49.53,1.07,1.07,0,0,1-.65.21,1.22,1.22,0,0,1-1-.45,1.46,1.46,0,0,1-.38-1V29.41a1.8,1.8,0,0,0-.37-1.17,1.45,1.45,0,0,0-1.16-.48,2.16,2.16,0,0,0-1.17.32,2.3,2.3,0,0,0-.81.8,1.86,1.86,0,0,0-.3,1v4.94a1.64,1.64,0,0,1-.34,1.13,1.33,1.33,0,0,1-1,.41,1.15,1.15,0,0,1-1-.45,1.77,1.77,0,0,1-.35-1.08V27.22a1.64,1.64,0,0,1,.37-1.09,1.1,1.1,0,0,1,.91-.45,1.72,1.72,0,0,1,.87.22,1,1,0,0,1,.35.81,3.47,3.47,0,0,1,.8-.7,3.11,3.11,0,0,1,.89-.4A4.8,4.8,0,0,1,115.51,25.47Z"/><path class="cls-6" d="M129.61,36.4a3.55,3.55,0,0,1-2.81-1.16,4.11,4.11,0,0,1-1-2.84V27.18a1.71,1.71,0,0,1,.35-1.11,1.21,1.21,0,0,1,1-.42,1.39,1.39,0,0,1,1,.36,1.53,1.53,0,0,1,.37,1.07V32.3a2,2,0,0,0,.38,1.26,1.48,1.48,0,0,0,1.16.54,2,2,0,0,0,1.66-.76,3,3,0,0,0,.6-2v-4a1.88,1.88,0,0,1,.34-1.26,1.49,1.49,0,0,1,1-.45,1.27,1.27,0,0,1,1,.37,1.74,1.74,0,0,1,.33,1.17v7.46c0,1.09-.43,1.64-1.28,1.65a1.25,1.25,0,0,1-.84-.27,1.15,1.15,0,0,1-.36-.88A3.82,3.82,0,0,1,129.61,36.4Z"/><path class="cls-6" d="M139.63,36.29v3a1.77,1.77,0,0,1-.33,1.11,1.09,1.09,0,0,1-.91.42,1.21,1.21,0,0,1-.95-.42,1.53,1.53,0,0,1-.39-1.07V27.29a2.66,2.66,0,0,1,.06-.67,1.19,1.19,0,0,1,.31-.51,1.59,1.59,0,0,1,1.19-.43h1.82a7.71,7.71,0,0,1,2.42.39,6.57,6.57,0,0,1,2.09,1.15,5.29,5.29,0,0,1,1.48,1.86,5.43,5.43,0,0,1,.56,2.46,4.3,4.3,0,0,1-3.16,4.5,10,10,0,0,1-2.68.36,7.81,7.81,0,0,1-.92,0Zm0-8.41V34h1.92a2.88,2.88,0,0,0,1.88-.6,2.25,2.25,0,0,0,.74-1.84c0-.06,0-.22,0-.51a3.54,3.54,0,0,0-.68-1.7A3.82,3.82,0,0,0,142,28.26a4.41,4.41,0,0,0-1.85-.38Z"/><path class="cls-6" d="M153.79,25.68a1.76,1.76,0,0,1,1,.28,1,1,0,0,1,.46.79c.12,1.42.26,2.63.43,3.63a12.89,12.89,0,0,0,1,3.14,7,7,0,0,0,.79-1.81,13.48,13.48,0,0,0,.41-1.91c.09-.59.18-1.25.25-2a8.57,8.57,0,0,1,.2-1.36,1.29,1.29,0,0,1,1.33-1,1.6,1.6,0,0,1,.84.22,1,1,0,0,1,.44.65c0,.18.11.6.19,1.27s.21,1.37.34,2.05a16.16,16.16,0,0,0,.46,2,10.93,10.93,0,0,0,.74,1.86,11,11,0,0,0,.76-1.73,16,16,0,0,0,.37-1.59c.06-.47.11-1.06.17-1.76s.09-1.22.11-1.55a1.16,1.16,0,0,1,.47-.83,1.44,1.44,0,0,1,.93-.32,1.52,1.52,0,0,1,.85.32.92.92,0,0,1,.35.79v.45a17.16,17.16,0,0,1-.31,3.27,15.87,15.87,0,0,1-.87,3,9,9,0,0,1-1.28,2.23,1.45,1.45,0,0,1-.56.46,3,3,0,0,1-.85.14,1.88,1.88,0,0,1-1.32-.41,3.72,3.72,0,0,1-.74-1,16.42,16.42,0,0,1-.6-1.62,12.48,12.48,0,0,1-.47-1.67A14,14,0,0,1,158.54,35a2.45,2.45,0,0,1-.8,1,2,2,0,0,1-1.16.33,2,2,0,0,1-1-.2,1.7,1.7,0,0,1-.66-.71,17.37,17.37,0,0,1-1.65-4.06,19.48,19.48,0,0,1-.46-2.09c-.12-.65-.21-1.33-.27-2.05a1.61,1.61,0,0,1,.33-1A1.3,1.3,0,0,1,153.79,25.68Z"/><path class="cls-6" d="M168.52,22.87v-.39a1.06,1.06,0,0,1,.43-.89,1.6,1.6,0,0,1,1-.33,1.73,1.73,0,0,1,.92.37,1.14,1.14,0,0,1,.37.88v.36a1.29,1.29,0,0,1-1.32,1.48,1.35,1.35,0,0,1-1.05-.41A1.47,1.47,0,0,1,168.52,22.87Zm0,11.91v-7.6a1.49,1.49,0,0,1,.43-1.07,1.4,1.4,0,0,1,1-.43,1.36,1.36,0,0,1,.94.43,1.62,1.62,0,0,1,.35,1.09v7.58a1.63,1.63,0,0,1-.35,1.12,1.38,1.38,0,0,1-2,0A1.63,1.63,0,0,1,168.52,34.78Z"/><path class="cls-6" d="M174.74,27.82H174a1.09,1.09,0,0,1-.8-.33,1,1,0,0,1-.35-.78.89.89,0,0,1,.37-.75,1.38,1.38,0,0,1,.85-.28h.76v-2a1,1,0,0,1,.41-.83,1.32,1.32,0,0,1,.91-.34,1.36,1.36,0,0,1,.87.32.94.94,0,0,1,.37.77v2.11h2a1.63,1.63,0,0,1,1,.26.9.9,0,0,1,.35.77,1,1,0,0,1-.37.81,1.39,1.39,0,0,1-.94.32h-1.94v4.42a4.33,4.33,0,0,0,.09.89.89.89,0,0,0,.26.56,5,5,0,0,0,.46.27.83.83,0,0,0,.41.08h1.16a2,2,0,0,1,1.11.29,1,1,0,0,1,.42.85,1,1,0,0,1-.44.82,1.83,1.83,0,0,1-1.07.31h-2.21a4.9,4.9,0,0,1-1-.14,2.52,2.52,0,0,1-1-.48,2.26,2.26,0,0,1-.7-1,4.48,4.48,0,0,1-.18-1.36Z"/><path class="cls-6" d="M188.08,25.43a4,4,0,0,1,2.06.51,3.38,3.38,0,0,1,1.31,1.39,4.62,4.62,0,0,1,.45,2.06V35a1.37,1.37,0,0,1-.37,1,1.24,1.24,0,0,1-.93.41,1.33,1.33,0,0,1-1.16-.72,1.32,1.32,0,0,1-.17-.68V29.45a1.86,1.86,0,0,0-.37-1.17,1.52,1.52,0,0,0-1.19-.46,2.17,2.17,0,0,0-1.16.32,2.3,2.3,0,0,0-.81.8,1.8,1.8,0,0,0-.29.95v5a1.52,1.52,0,0,1-.35,1.08,1.33,1.33,0,0,1-1,.41,1.17,1.17,0,0,1-1-.45,1.59,1.59,0,0,1-.35-1V23a1.63,1.63,0,0,1,.35-1.13,1.26,1.26,0,0,1,1-.36,1.43,1.43,0,0,1,.85.31.92.92,0,0,1,.35.74v4a3.73,3.73,0,0,1,1.26-.82A4.66,4.66,0,0,1,188.08,25.43Z"/><path class="cls-6" d="M208.25,36.33a11.55,11.55,0,0,1-3.92-.64,9.5,9.5,0,0,1-3.12-1.82,8.15,8.15,0,0,1-2.06-2.81,7.93,7.93,0,0,1-.33-5.82,5.61,5.61,0,0,1,1.11-1.92,5.06,5.06,0,0,1,2-1.36,8.33,8.33,0,0,1,3-.48h4.85c1.12,0,1.7.43,1.72,1.3a1.25,1.25,0,0,1-.38.91,1.21,1.21,0,0,1-.9.4h-4.73a4.17,4.17,0,0,0-3.06.94,3.79,3.79,0,0,0-.93,2.79,4.86,4.86,0,0,0,.79,2.81,5.86,5.86,0,0,0,2,1.82,9,9,0,0,0,2.23.93,6.83,6.83,0,0,0,1.77.29h1V28.32H206a1.32,1.32,0,0,1-.94-.41,1.27,1.27,0,0,1-.4-.92,1.22,1.22,0,0,1,.42-.92,1.36,1.36,0,0,1,1-.39h4.06a1.51,1.51,0,0,0,.31,0h.34a1,1,0,0,1,.78.26.65.65,0,0,1,.18.31,2.26,2.26,0,0,1,0,.42v8.67a2,2,0,0,1,0,.53,1.06,1.06,0,0,1-.36.28,1.58,1.58,0,0,1-.85.22l-.29,0h-2Z"/><path class="cls-6" d="M213.44,31a5.84,5.84,0,0,1,2.62-4.87,5.08,5.08,0,0,1,4.83-.35A4.83,4.83,0,0,1,222.57,27a5.73,5.73,0,0,1,1.07,1.76,6.19,6.19,0,0,1,.39,2.09,7,7,0,0,1-.58,2.89,4.91,4.91,0,0,1-1.79,2,5.72,5.72,0,0,1-2.92.83,5.22,5.22,0,0,1-2.18-.45,4.78,4.78,0,0,1-1.68-1.24,5.37,5.37,0,0,1-1-1.8A5.77,5.77,0,0,1,213.44,31Zm2.77-.1a4.88,4.88,0,0,0,.29,1.69,3.15,3.15,0,0,0,.86,1.26,2,2,0,0,0,1.32.48,2.19,2.19,0,0,0,1.41-.48,2.92,2.92,0,0,0,.91-1.28,4.79,4.79,0,0,0,.32-1.73,4.88,4.88,0,0,0-.38-1.49,2.64,2.64,0,0,0-.87-1.14,1.92,1.92,0,0,0-1.28-.45,2.06,2.06,0,0,0-1.33.45,2.87,2.87,0,0,0-.88,1.16A4.9,4.9,0,0,0,216.21,30.88Z"/><path class="cls-6" d="M225.27,31a5.84,5.84,0,0,1,2.62-4.87,5.08,5.08,0,0,1,4.83-.35A4.83,4.83,0,0,1,234.4,27a5.93,5.93,0,0,1,1.07,1.76,6.45,6.45,0,0,1,.39,2.09,6.84,6.84,0,0,1-.59,2.89,4.82,4.82,0,0,1-1.78,2,5.72,5.72,0,0,1-2.92.83,5.22,5.22,0,0,1-2.18-.45,4.78,4.78,0,0,1-1.68-1.24,5.21,5.21,0,0,1-1.05-1.8A5.77,5.77,0,0,1,225.27,31Zm2.77-.1a4.88,4.88,0,0,0,.29,1.69,3.15,3.15,0,0,0,.86,1.26,2,2,0,0,0,1.32.48,2.19,2.19,0,0,0,1.41-.48,3,3,0,0,0,.91-1.28,4.79,4.79,0,0,0,.32-1.73,4.88,4.88,0,0,0-.38-1.49,2.64,2.64,0,0,0-.87-1.14,1.94,1.94,0,0,0-1.28-.45,2,2,0,0,0-1.33.45,2.87,2.87,0,0,0-.88,1.16A4.9,4.9,0,0,0,228,30.88Z"/><path class="cls-6" d="M247.06,34.58l.59.43a2.25,2.25,0,0,1,.6.68,2.6,2.6,0,0,1,.29,1.12,3.16,3.16,0,0,1-.59,1.9,4.63,4.63,0,0,1-1.56,1.34,8.14,8.14,0,0,1-2.15.8,10.66,10.66,0,0,1-2.27.25,9.87,9.87,0,0,1-1.59-.14c-.57-.08-1.1-.17-1.59-.29a5,5,0,0,1-1-.33l-.62-.26a.94.94,0,0,1-.43-.41,1,1,0,0,1-.17-.56,1,1,0,0,1,.06-.37.91.91,0,0,1,.95-.72,2.07,2.07,0,0,1,.58.1l.75.19c.73.19,1.29.32,1.67.39a9.39,9.39,0,0,0,1.38.09,10.51,10.51,0,0,0,1.28-.11,6.33,6.33,0,0,0,1.14-.29,2.4,2.4,0,0,0,.86-.55,1.15,1.15,0,0,0,.37-.79.6.6,0,0,0-.34-.6,2.26,2.26,0,0,0-.95-.16l-.54,0-.52,0h-1.92a4.51,4.51,0,0,1-1.86-.37,4.25,4.25,0,0,1-1.46-1,4.54,4.54,0,0,1-.91-1.53,5.17,5.17,0,0,1-.33-1.84,6.58,6.58,0,0,1,.6-2.64,5.42,5.42,0,0,1,1.49-1.84,7.07,7.07,0,0,1,2.23-1,11.06,11.06,0,0,1,2.87-.35h2.45a2.84,2.84,0,0,1,1.1.18.71.71,0,0,1,.41.72,1,1,0,0,1-.18.66.85.85,0,0,1-.42.27.62.62,0,0,0-.31.17,2.05,2.05,0,0,1-.12.2,1,1,0,0,0-.1.17.45.45,0,0,0-.05.19v5.49A1.16,1.16,0,0,0,247.06,34.58Zm-5-.6h2.06V27.76l-.78.08a5.12,5.12,0,0,0-1.66.39,3.43,3.43,0,0,0-1.94,1.89,5,5,0,0,0-.29,1.4,2.2,2.2,0,0,0,.77,1.82A2.75,2.75,0,0,0,242,34Z"/><path class="cls-6" d="M250.65,34.78V23a1.44,1.44,0,0,1,.41-1.06,1.29,1.29,0,0,1,1-.43,1.26,1.26,0,0,1,.94.43,1.56,1.56,0,0,1,.35,1.08V34.78A1.58,1.58,0,0,1,253,35.9a1.24,1.24,0,0,1-1,.43,1.3,1.3,0,0,1-1.06-.45A1.67,1.67,0,0,1,250.65,34.78Z"/><path class="cls-6" d="M259,33.34a2.8,2.8,0,0,0,2,.7h3.2a1.44,1.44,0,0,1,.92.27,1.16,1.16,0,0,1,.37.78,1,1,0,0,1-.65,1,4.26,4.26,0,0,1-1.58.25h-2.1a6.86,6.86,0,0,1-3.18-.68,4.46,4.46,0,0,1-2-1.88,5.9,5.9,0,0,1-.64-2.77,6.48,6.48,0,0,1,.43-2.39,5.29,5.29,0,0,1,1.12-1.8,4.79,4.79,0,0,1,1.69-1.15,5.5,5.5,0,0,1,2.11-.4,5,5,0,0,1,2.56.72,4.74,4.74,0,0,1,1.69,1.7,3.91,3.91,0,0,1,.58,2v.41a2.4,2.4,0,0,1-.06.58,1,1,0,0,1-.27.44,1,1,0,0,1-.48.27,4.3,4.3,0,0,1-.72.05h-5.91a2.53,2.53,0,0,0,.23,1.08A2.43,2.43,0,0,0,259,33.34Zm-.7-3.93h4.56a2.19,2.19,0,0,0-.76-1.36,2.29,2.29,0,0,0-1.49-.54,2.36,2.36,0,0,0-1.07.23,2.54,2.54,0,0,0-.81.68A2.44,2.44,0,0,0,258.27,29.41Z"/></svg>