<svg id="Layer_1" data-name="Layer 1" xmlns="http://www.w3.org/2000/svg" viewBox="0 0 283.46 62.36"><defs><style>.cls-1{fill:#4285f4;}.cls-2{fill:#f2f2f2;}.cls-3{fill:#34a853;}.cls-4{fill:#fbbc05;}.cls-5{fill:#ea4335;}.cls-6{fill:#fff;}</style></defs><rect class="cls-1" x="0.7" y="1.2" width="282.07" height="59.97"/><rect class="cls-2" x="0.7" y="1.2" width="59.97" height="59.97"/><path class="cls-1" d="M47.84,31.58a20.94,20.94,0,0,0-.28-3.32H31.06v6.59h9.45A8.15,8.15,0,0,1,37,40.07v4.39h5.64A17.15,17.15,0,0,0,47.84,31.58Z"/><path class="cls-3" d="M31.06,48.7a16.7,16.7,0,0,0,11.58-4.24L37,40.07a10.56,10.56,0,0,1-15.77-5.54H15.42V39A17.49,17.49,0,0,0,31.06,48.7Z"/><path class="cls-4" d="M21.23,34.53a10.11,10.11,0,0,1-.56-3.35,10.54,10.54,0,0,1,.56-3.34V23.32H15.42a17.29,17.29,0,0,0,0,15.72Z"/><path class="cls-5" d="M31.06,20.59a9.48,9.48,0,0,1,6.71,2.63l5-5a16.76,16.76,0,0,0-11.71-4.57,17.49,17.49,0,0,0-15.64,9.66l5.81,4.52A10.48,10.48,0,0,1,31.06,20.59Z"/><path class="cls-6" d="M83.66,24.78H78.34c-.83,0-1.25.24-1.25.72s.39.78,1.17,1l4.54,1.07a5.11,5.11,0,0,1,1.51.59,4.49,4.49,0,0,1,1.17,1,4.85,4.85,0,0,1,.74,1.35,5.85,5.85,0,0,1,.29,1.66,5,5,0,0,1-.5,2.21,5.34,5.34,0,0,1-1.31,1.78,6.08,6.08,0,0,1-1.94,1.15,6.33,6.33,0,0,1-2.25.43H76.89a6.71,6.71,0,0,1-2.35-.33A1.26,1.26,0,0,1,73.68,36a1.06,1.06,0,0,1,.67-.94,4,4,0,0,1,1.54-.25l.85,0c.4,0,.69,0,.86,0h2.77a3.8,3.8,0,0,0,1.49-.28,2.68,2.68,0,0,0,1.08-.88,2.29,2.29,0,0,0,.41-1.39,1.85,1.85,0,0,0-.61-1.54A4.28,4.28,0,0,0,81,30l-3.7-.88a5,5,0,0,1-2.52-1.22A2.9,2.9,0,0,1,74,25.77a4.16,4.16,0,0,1,.31-1.48,3.56,3.56,0,0,1,.82-1.21,3.92,3.92,0,0,1,1.29-.77A4.61,4.61,0,0,1,78,22h5.38a2.18,2.18,0,0,1,1.15.29,1.07,1.07,0,0,1,.53.9,1.55,1.55,0,0,1-.45,1.12A1.31,1.31,0,0,1,83.66,24.78Z"/><path class="cls-6" d="M89.06,23.49v-.41a1.11,1.11,0,0,1,.45-.93,1.7,1.7,0,0,1,1.09-.35,1.73,1.73,0,0,1,1,.39,1.17,1.17,0,0,1,.39.92v.38a1.35,1.35,0,0,1-1.39,1.56,1.41,1.41,0,0,1-1.11-.43A1.57,1.57,0,0,1,89.06,23.49Zm0,12.57V28a1.59,1.59,0,0,1,.45-1.13,1.5,1.5,0,0,1,1.09-.45,1.39,1.39,0,0,1,1,.45A1.69,1.69,0,0,1,92,28.06v8a1.7,1.7,0,0,1-.37,1.19,1.34,1.34,0,0,1-1,.45,1.37,1.37,0,0,1-1.11-.47A1.76,1.76,0,0,1,89.06,36.06Z"/><path class="cls-6" d="M104.47,35.85l.62.46a2.33,2.33,0,0,1,.63.71,2.74,2.74,0,0,1,.31,1.19,3.4,3.4,0,0,1-.62,2,4.81,4.81,0,0,1-1.65,1.4,8.31,8.31,0,0,1-2.28.85,11.65,11.65,0,0,1-2.39.26,11.19,11.19,0,0,1-1.68-.14c-.6-.09-1.16-.19-1.68-.31a7.09,7.09,0,0,1-1.1-.34L94,41.65a.82.82,0,0,1-.45-.43,1,1,0,0,1-.19-.59,1.14,1.14,0,0,1,.06-.39,1,1,0,0,1,1-.76,2.82,2.82,0,0,1,.61.1l.79.21c.77.2,1.36.34,1.77.41a8.92,8.92,0,0,0,1.45.1,10,10,0,0,0,1.35-.12,5.84,5.84,0,0,0,1.2-.31,2.58,2.58,0,0,0,.91-.58,1.21,1.21,0,0,0,.39-.83.64.64,0,0,0-.35-.64,2.54,2.54,0,0,0-1-.16c-.12,0-.31,0-.57,0l-.55,0h-2a4.86,4.86,0,0,1-2-.39,4.32,4.32,0,0,1-1.53-1.09,4.63,4.63,0,0,1-1-1.61,5.56,5.56,0,0,1-.34-2,6.9,6.9,0,0,1,.63-2.78,5.58,5.58,0,0,1,1.57-1.94,7.25,7.25,0,0,1,2.36-1.11,11.75,11.75,0,0,1,3-.37h2.58a3,3,0,0,1,1.16.19.73.73,0,0,1,.43.76,1.06,1.06,0,0,1-.18.69,1.09,1.09,0,0,1-.45.29.74.74,0,0,0-.33.18c-.05.1-.1.16-.12.2a1.18,1.18,0,0,0-.11.19.39.39,0,0,0-.06.2V35A1.2,1.2,0,0,0,104.47,35.85Zm-5.32-.63h2.17V28.66l-.82.07a5.69,5.69,0,0,0-1.76.41,3.91,3.91,0,0,0-1.27.84,3.5,3.5,0,0,0-.77,1.17,5,5,0,0,0-.31,1.47,2.32,2.32,0,0,0,.82,1.93A2.9,2.9,0,0,0,99.15,35.22Z"/><path class="cls-6" d="M113.33,26.24a4.29,4.29,0,0,1,1.7.33,3.52,3.52,0,0,1,1.29.88,3.91,3.91,0,0,1,.8,1.28,4.8,4.8,0,0,1,.26,1.58V36.2a1.54,1.54,0,0,1-.18.72,1.35,1.35,0,0,1-.51.55,1.17,1.17,0,0,1-.7.23,1.29,1.29,0,0,1-1-.47,1.61,1.61,0,0,1-.41-1.07V30.39a1.85,1.85,0,0,0-.39-1.23,1.57,1.57,0,0,0-1.22-.51,2.19,2.19,0,0,0-1.23.35,2.42,2.42,0,0,0-.87.84,2,2,0,0,0-.3,1v5.22a1.71,1.71,0,0,1-.37,1.19,1.41,1.41,0,0,1-1,.43,1.25,1.25,0,0,1-1.05-.47,1.9,1.9,0,0,1-.37-1.15v-8a1.71,1.71,0,0,1,.39-1.14,1.17,1.17,0,0,1,1-.48,1.78,1.78,0,0,1,.91.23,1.1,1.1,0,0,1,.38.85,3.4,3.4,0,0,1,.84-.73,3.35,3.35,0,0,1,.94-.43A5.22,5.22,0,0,1,113.33,26.24Z"/><path class="cls-6" d="M124.75,23.49v-.41a1.11,1.11,0,0,1,.45-.93,1.67,1.67,0,0,1,1.08-.35,1.73,1.73,0,0,1,1,.39,1.17,1.17,0,0,1,.39.92v.38a1.36,1.36,0,0,1-1.4,1.56,1.4,1.4,0,0,1-1.1-.43A1.57,1.57,0,0,1,124.75,23.49Zm0,12.57V28a1.59,1.59,0,0,1,.45-1.13,1.47,1.47,0,0,1,1.08-.45,1.44,1.44,0,0,1,1,.45,1.74,1.74,0,0,1,.37,1.15v8a1.75,1.75,0,0,1-.37,1.19,1.46,1.46,0,0,1-2.13,0A1.76,1.76,0,0,1,124.75,36.06Z"/><path class="cls-6" d="M135.33,26.24a4.33,4.33,0,0,1,1.7.33,3.48,3.48,0,0,1,1.28.88,3.75,3.75,0,0,1,.8,1.28,4.56,4.56,0,0,1,.27,1.58V36.2a1.44,1.44,0,0,1-.19.72,1.35,1.35,0,0,1-.51.55,1.12,1.12,0,0,1-.69.23,1.27,1.27,0,0,1-1-.47,1.56,1.56,0,0,1-.41-1.07V30.39a1.85,1.85,0,0,0-.39-1.23,1.61,1.61,0,0,0-1.23-.51,2.24,2.24,0,0,0-1.23.35,2.39,2.39,0,0,0-.86.84,2,2,0,0,0-.31,1v5.22a1.76,1.76,0,0,1-.36,1.19,1.41,1.41,0,0,1-1,.43,1.23,1.23,0,0,1-1.05-.47,1.84,1.84,0,0,1-.37-1.15v-8a1.71,1.71,0,0,1,.39-1.14,1.17,1.17,0,0,1,1-.48,1.78,1.78,0,0,1,.91.23,1.06,1.06,0,0,1,.37.85,3.8,3.8,0,0,1,.84-.73,3.49,3.49,0,0,1,.94-.43A5.4,5.4,0,0,1,135.33,26.24Z"/><path class="cls-6" d="M147,26.46a1.86,1.86,0,0,1,1,.29,1.08,1.08,0,0,1,.49.84c.12,1.5.27,2.78.45,3.83a13.53,13.53,0,0,0,1,3.31,7.56,7.56,0,0,0,.84-1.9,14,14,0,0,0,.43-2c.1-.61.19-1.32.27-2.1a10.78,10.78,0,0,1,.2-1.44,1.36,1.36,0,0,1,1.41-1.08,1.72,1.72,0,0,1,.88.22,1.11,1.11,0,0,1,.47.7c0,.18.11.62.21,1.33s.21,1.45.35,2.17a16.58,16.58,0,0,0,.49,2.11,11.57,11.57,0,0,0,.77,2,10.73,10.73,0,0,0,.8-1.82,14.07,14.07,0,0,0,.39-1.68c.07-.51.13-1.12.18-1.86s.1-1.29.13-1.64a1.22,1.22,0,0,1,.49-.88,1.51,1.51,0,0,1,1-.33,1.63,1.63,0,0,1,.9.33,1,1,0,0,1,.37.84v.47a18.35,18.35,0,0,1-.33,3.46,16.11,16.11,0,0,1-.92,3.15A8.81,8.81,0,0,1,158,37.06a1.45,1.45,0,0,1-.59.49,3.1,3.1,0,0,1-.9.15,2,2,0,0,1-1.39-.43,4,4,0,0,1-.78-1.07,16.49,16.49,0,0,1-.63-1.71,12.88,12.88,0,0,1-.5-1.76A14.94,14.94,0,0,1,152,36.28a2.52,2.52,0,0,1-.84,1.07,2.15,2.15,0,0,1-1.23.35,2,2,0,0,1-1-.21,1.75,1.75,0,0,1-.7-.76,15.09,15.09,0,0,1-1-2,17,17,0,0,1-.76-2.25,20.41,20.41,0,0,1-.49-2.21c-.12-.68-.22-1.41-.29-2.17a1.69,1.69,0,0,1,.35-1.1A1.39,1.39,0,0,1,147,26.46Z"/><path class="cls-6" d="M162.56,23.49v-.41a1.11,1.11,0,0,1,.45-.93,1.7,1.7,0,0,1,1.09-.35,1.73,1.73,0,0,1,1,.39,1.17,1.17,0,0,1,.39.92v.38a1.35,1.35,0,0,1-1.39,1.56,1.41,1.41,0,0,1-1.11-.43A1.57,1.57,0,0,1,162.56,23.49Zm0,12.57V28a1.59,1.59,0,0,1,.45-1.13,1.5,1.5,0,0,1,1.09-.45,1.39,1.39,0,0,1,1,.45,1.69,1.69,0,0,1,.37,1.15v8a1.7,1.7,0,0,1-.37,1.19,1.34,1.34,0,0,1-1,.45,1.37,1.37,0,0,1-1.11-.47A1.76,1.76,0,0,1,162.56,36.06Z"/><path class="cls-6" d="M169.13,28.72h-.82a1.14,1.14,0,0,1-.83-.35,1,1,0,0,1-.37-.82.94.94,0,0,1,.39-.8,1.4,1.4,0,0,1,.89-.29h.8V24.31a1.12,1.12,0,0,1,.43-.88,1.48,1.48,0,0,1,1-.35,1.45,1.45,0,0,1,.93.33,1.06,1.06,0,0,1,.38.82v2.23h2.16a1.7,1.7,0,0,1,1,.27,1,1,0,0,1,.37.82,1.14,1.14,0,0,1-.39.86,1.53,1.53,0,0,1-1,.32H172V33.4a4.11,4.11,0,0,0,.1.94.93.93,0,0,0,.27.6,5.2,5.2,0,0,0,.49.28.89.89,0,0,0,.43.08h1.22a2.12,2.12,0,0,1,1.17.31,1.06,1.06,0,0,1,.45.9,1,1,0,0,1-.47.86,1.87,1.87,0,0,1-1.13.33H172.2a4.78,4.78,0,0,1-1.08-.15,2.54,2.54,0,0,1-1.07-.51,2.45,2.45,0,0,1-.74-1.06,5,5,0,0,1-.18-1.43Z"/><path class="cls-6" d="M183.21,26.2a4.28,4.28,0,0,1,2.17.53,3.58,3.58,0,0,1,1.39,1.47,4.8,4.8,0,0,1,.47,2.17v5.87a1.49,1.49,0,0,1-.39,1,1.33,1.33,0,0,1-1.7.22,1.42,1.42,0,0,1-.51-.55,1.48,1.48,0,0,1-.18-.72V30.43a1.93,1.93,0,0,0-.39-1.23,1.57,1.57,0,0,0-1.25-.48,2.23,2.23,0,0,0-1.23.34,2.56,2.56,0,0,0-.86.84,2,2,0,0,0-.3,1v5.22a1.59,1.59,0,0,1-.37,1.15,1.41,1.41,0,0,1-1,.43,1.28,1.28,0,0,1-1-.47,1.72,1.72,0,0,1-.36-1.11V23.6a1.71,1.71,0,0,1,.36-1.19,1.33,1.33,0,0,1,1-.39,1.6,1.6,0,0,1,.9.33,1,1,0,0,1,.37.78v4.21a4.09,4.09,0,0,1,1.32-.86A4.71,4.71,0,0,1,183.21,26.2Z"/><path class="cls-6" d="M204.5,37.7a12.31,12.31,0,0,1-4.14-.68,10.07,10.07,0,0,1-3.29-1.92,8.27,8.27,0,0,1-2.17-3,8.73,8.73,0,0,1-.78-3.7,8.82,8.82,0,0,1,.43-2.44,5.63,5.63,0,0,1,1.17-2,5.25,5.25,0,0,1,2.1-1.43A8.52,8.52,0,0,1,201,22h5.12c1.19,0,1.8.46,1.82,1.37a1.28,1.28,0,0,1-.41,1,1.24,1.24,0,0,1-.94.43h-5a4.45,4.45,0,0,0-3.24,1,4,4,0,0,0-1,2.95,5.13,5.13,0,0,0,.84,3,6.24,6.24,0,0,0,2.07,1.93,10,10,0,0,0,2.35,1,7.79,7.79,0,0,0,1.87.3h1.1V29.24h-3.42a1.34,1.34,0,0,1-1-.43,1.32,1.32,0,0,1-.43-1,1.27,1.27,0,0,1,.45-1,1.45,1.45,0,0,1,1-.41h4.28a1.72,1.72,0,0,0,.33,0h.36a1,1,0,0,1,.82.27.61.61,0,0,1,.19.33,2.48,2.48,0,0,1,0,.45v9.14a1.71,1.71,0,0,1-.06.56,1.12,1.12,0,0,1-.37.3,1.77,1.77,0,0,1-.9.23,1.67,1.67,0,0,0-.31,0h-2.1Z"/><path class="cls-6" d="M210,32.05a6,6,0,0,1,.74-2.93,6,6,0,0,1,2-2.21,5.36,5.36,0,0,1,5.1-.36,5,5,0,0,1,1.78,1.27,6.31,6.31,0,0,1,1.12,1.85,6.66,6.66,0,0,1,.41,2.22,7.29,7.29,0,0,1-.61,3,5.08,5.08,0,0,1-1.89,2.14,5.87,5.87,0,0,1-3.08.88,5.44,5.44,0,0,1-2.3-.47,5.12,5.12,0,0,1-1.78-1.31,5.78,5.78,0,0,1-1.1-1.9A6.21,6.21,0,0,1,210,32.05Zm2.92-.1a5.16,5.16,0,0,0,.31,1.78,3.34,3.34,0,0,0,.9,1.33,2.08,2.08,0,0,0,1.4.51,2.3,2.3,0,0,0,1.49-.51,3.2,3.2,0,0,0,1-1.35,5.06,5.06,0,0,0,.33-1.82,5.09,5.09,0,0,0-.39-1.58A3,3,0,0,0,217,29.1a2,2,0,0,0-1.34-.47,2.2,2.2,0,0,0-1.41.47,3.19,3.19,0,0,0-.93,1.23A5.34,5.34,0,0,0,212.9,32Z"/><path class="cls-6" d="M222.47,32.05a6.1,6.1,0,0,1,2.76-5.14,5.41,5.41,0,0,1,2.82-.84,5.34,5.34,0,0,1,2.27.48,4.94,4.94,0,0,1,1.78,1.27,6.34,6.34,0,0,1,1.13,1.85,6.93,6.93,0,0,1,.41,2.22,7.29,7.29,0,0,1-.62,3,5.06,5.06,0,0,1-1.88,2.14,5.94,5.94,0,0,1-3.09.88,5.39,5.39,0,0,1-2.29-.47A5.12,5.12,0,0,1,224,36.18a5.61,5.61,0,0,1-1.1-1.9A6,6,0,0,1,222.47,32.05Zm2.92-.1a4.93,4.93,0,0,0,.31,1.78,3.15,3.15,0,0,0,.9,1.33,2.06,2.06,0,0,0,1.39.51,2.35,2.35,0,0,0,1.5-.51,3.1,3.1,0,0,0,.95-1.35,5.06,5.06,0,0,0,.33-1.82,4.82,4.82,0,0,0-.39-1.58,3,3,0,0,0-.92-1.21,2.07,2.07,0,0,0-1.35-.47,2.24,2.24,0,0,0-1.41.47,3.27,3.27,0,0,0-.92,1.23A4.81,4.81,0,0,0,225.39,32Z"/><path class="cls-6" d="M245.47,35.85c.17.14.38.29.61.46a2.35,2.35,0,0,1,.64.71,2.89,2.89,0,0,1,.3,1.19,3.39,3.39,0,0,1-.61,2,4.94,4.94,0,0,1-1.66,1.4,8.13,8.13,0,0,1-2.27.85,11.8,11.8,0,0,1-2.39.26,11,11,0,0,1-1.68-.14c-.6-.09-1.16-.19-1.68-.31a6.43,6.43,0,0,1-1.1-.34l-.66-.29a.89.89,0,0,1-.45-.43,1,1,0,0,1-.18-.59,1.14,1.14,0,0,1,.06-.39,1,1,0,0,1,1-.76,2.73,2.73,0,0,1,.61.1l.8.21c.77.2,1.35.34,1.76.41a9.09,9.09,0,0,0,1.45.1,10,10,0,0,0,1.36-.12,6.2,6.2,0,0,0,1.2-.31,2.45,2.45,0,0,0,.9-.58,1.13,1.13,0,0,0,.39-.83.63.63,0,0,0-.35-.64,2.49,2.49,0,0,0-1-.16c-.12,0-.32,0-.58,0l-.55,0h-2a4.91,4.91,0,0,1-2-.39,4.32,4.32,0,0,1-1.53-1.09,4.76,4.76,0,0,1-1-1.61,5.56,5.56,0,0,1-.35-2,6.74,6.74,0,0,1,.64-2.78,5.47,5.47,0,0,1,1.57-1.94,7.19,7.19,0,0,1,2.35-1.11,11.75,11.75,0,0,1,3-.37h2.58a3,3,0,0,1,1.17.19.74.74,0,0,1,.43.76,1.05,1.05,0,0,1-.19.69,1,1,0,0,1-.45.29c-.19.07-.3.13-.32.18l-.13.2a1.14,1.14,0,0,0-.1.19.39.39,0,0,0-.06.2V35A1.2,1.2,0,0,0,245.47,35.85Zm-5.32-.63h2.16V28.66l-.81.07a5.62,5.62,0,0,0-1.76.41,3.71,3.71,0,0,0-1.27.84,3.53,3.53,0,0,0-.78,1.17,5.39,5.39,0,0,0-.31,1.47,2.35,2.35,0,0,0,.82,1.93A2.92,2.92,0,0,0,240.15,35.22Z"/><path class="cls-6" d="M249.25,36.06V23.6a1.52,1.52,0,0,1,.43-1.12,1.42,1.42,0,0,1,2.09,0,1.7,1.7,0,0,1,.37,1.14V36.06a1.75,1.75,0,0,1-.37,1.19,1.46,1.46,0,0,1-2.13,0A1.76,1.76,0,0,1,249.25,36.06Z"/><path class="cls-6" d="M258,34.55a3,3,0,0,0,2.11.73h3.37a1.52,1.52,0,0,1,1,.29,1.19,1.19,0,0,1,.39.82,1,1,0,0,1-.68,1,4.55,4.55,0,0,1-1.68.27H260.3a7.19,7.19,0,0,1-3.36-.72,4.76,4.76,0,0,1-2.06-2,6.18,6.18,0,0,1-.67-2.93,6.73,6.73,0,0,1,.44-2.52,5.74,5.74,0,0,1,1.19-1.9,5.16,5.16,0,0,1,1.78-1.21,5.94,5.94,0,0,1,2.23-.43,5.41,5.41,0,0,1,2.7.76,5,5,0,0,1,1.78,1.8,4.18,4.18,0,0,1,.62,2.09v.43a2.13,2.13,0,0,1-.07.61,1,1,0,0,1-.28.47,1.21,1.21,0,0,1-.51.29,5,5,0,0,1-.76,0h-6.24a2.83,2.83,0,0,0,.24,1.15A2.69,2.69,0,0,0,258,34.55Zm-.74-4.16h4.81a2.27,2.27,0,0,0-.8-1.43,2.4,2.4,0,0,0-1.57-.57,2.36,2.36,0,0,0-2,1A2.48,2.48,0,0,0,257.29,30.39Z"/></svg>